<?xml version="1.0" encoding="UTF-8"?>
<svg width="47px" height="54px" viewBox="0 0 47 54" version="1.1" xmlns="http://www.w3.org/2000/svg" xmlns:xlink="http://www.w3.org/1999/xlink">
    <!-- Generator: Sketch 44.1 (41455) - http://www.bohemiancoding.com/sketch -->
    <title>Shape</title>
    <desc>Created with Sketch.</desc>
    <defs></defs>
    <g id="Page-1" stroke="none" stroke-width="1" fill="none" fill-rule="evenodd">
        <g id="Desktop-HD-Copy" transform="translate(-884.000000, -1890.000000)" fill="#F26558">
            <path d="M927.5,1903.5 C927.5,1904.2 927.4,1904.8 927.2,1905.4 C927,1906.1 926.7,1906.8 926.2,1907.3 L926.2,1907.3 L926.1,1907.5 L907.3,1932.3 L888.3,1906.7 C887.9,1906.2 887.7,1905.6 887.5,1904.9 C887.3,1904.3 887.2,1903.7 887.2,1903 C887.1,1901.8 887.4,1900.7 887.7,1899.9 L887.9,1899.4 C888.3,1898.5 888.8,1897.6 889.3,1896.9 L889.5,1896.7 C889.6,1896.5 889.8,1896.3 890.1,1896.1 C890.4,1895.8 890.7,1895.5 891.1,1895.2 C891.5,1894.8 892.1,1894.4 892.6,1894.2 L892.8,1894.1 L895,1893.2 C895.9,1892.9 896.8,1892.8 897.8,1892.8 L898.2,1892.8 L899.1,1892.9 C901.2,1893.2 903.1,1894 904.6,1895.2 L904.8,1895.3 L906.1,1896.5 C906.5,1896.7 907,1896.9 907.5,1896.9 C908.3,1896.9 909.1,1896.5 909.4,1896.1 L909.7,1895.8 C911.4,1894.2 913.6,1893.2 915.9,1893 L916.2,1893 L916.4,1893 L917.2,1893 C917.5,1893 917.9,1893 918.3,1893.1 C920.9,1893.4 923.2,1894.6 925,1896.5 L925.1,1896.7 C925.3,1896.9 925.5,1897.1 925.7,1897.5 C926.9,1899.2 927.6,1901.2 927.7,1903.3 L927.5,1903.5 L927.5,1903.5 Z M930,1907.2 C930.5,1906 930.8,1904.8 930.8,1903.6 C930.8,1900.4 929.6,1897.3 927.5,1894.9 L927.4,1894.8 L927.4,1894.8 L927.3,1894.8 L927,1894.5 C925.5,1892.9 923.6,1891.6 921.5,1890.9 L921.2,1890.8 L920.9,1890.7 C920.8,1890.7 920.4,1890.6 920.1,1890.5 C919.2,1890.3 918.2,1890.2 917.1,1890.1 L916.3,1890.1 C913.8,1890.2 911.3,1891 909.2,1892.3 L907.4,1893.5 L905.6,1892.3 C903.6,1890.9 901.2,1890.1 898.9,1890 L898.8,1890 L898.1,1890 L897.8,1890 C896.8,1890 895.9,1890.1 895.2,1890.2 L894.9,1890.3 C894.7,1890.3 894.3,1890.4 893.9,1890.5 L893.3,1890.7 C892.7,1890.9 892.3,1891.1 892.1,1891.2 C891.2,1891.6 890.4,1892.1 889.7,1892.6 C889.2,1893 888.6,1893.5 887.8,1894.3 L887.6,1894.5 C887.5,1894.6 887.4,1894.7 887.3,1894.8 C886.2,1896.1 885.4,1897.4 885,1898.5 L884.6,1899.6 C884.3,1900.5 884,1902 884,1903.7 C884,1904.9 884.3,1906.2 884.8,1907.3 L884.8,1907.4 L885.1,1907.9 L906.1,1936.5 C906.4,1936.9 906.8,1937.1 907.3,1937.1 L907.3,1937.1 C907.8,1937.1 908.2,1936.9 908.5,1936.5 L929.6,1908.3 L930,1907.2 L930,1907.2 Z M907.3,1913.7 C903.8,1913.7 901,1910.9 901,1907.4 C901,1903.9 903.8,1901.1 907.3,1901.1 C910.8,1901.1 913.6,1903.9 913.6,1907.4 C913.7,1910.8 910.8,1913.7 907.3,1913.7 L907.3,1913.7 Z M907.3,1903 C904.9,1903 903,1905 903,1907.3 C903,1909.6 905,1911.6 907.3,1911.6 C909.6,1911.6 911.6,1909.6 911.6,1907.3 C911.6,1905 909.7,1903 907.3,1903 L907.3,1903 Z M907.3,1939.5 C906.2,1939.5 905.3,1940.4 905.3,1941.5 C905.3,1942.6 906.2,1943.5 907.3,1943.5 C908.4,1943.5 909.3,1942.6 909.3,1941.5 C909.3,1940.4 908.4,1939.5 907.3,1939.5 L907.3,1939.5 Z" id="Shape"></path>
        </g>
    </g>
</svg>